# This file uses centimeters as units for non-parametric coordinates.

mtllib wavy_body.mtl
g default
v -0.289404 2.134025 0.174119
v -0.231529 2.134025 0.217643
v -0.248703 2.334025 0.233787
v -0.310871 2.334025 0.187034
v 0.289404 2.134025 0.174119
v 0.231529 2.134025 0.217643
v 0.248703 2.334025 0.233787
v 0.310871 2.334025 0.187034
v -0.308643 2.534025 0.278865
v -0.370811 2.534025 0.232112
v 0.308643 2.534025 0.278865
v 0.370811 2.534025 0.232112
v -0.308643 2.734025 0.278865
v -0.370811 2.734025 0.232112
v 0.308643 2.734025 0.278865
v 0.370811 2.734025 0.232112
v -0.254448 2.934025 0.238108
v -0.316616 2.934025 0.191355
v 0.254448 2.934025 0.238108
v 0.316616 2.934025 0.191355
v -0.316616 3.134024 0.191355
v -0.254448 3.134024 0.238108
v 0.316616 3.134024 0.191355
v 0.254448 3.134024 0.238108
v -0.316616 3.134024 -0.191355
v -0.254448 3.134024 -0.238108
v -0.254448 2.934025 -0.238108
v -0.316616 2.934025 -0.191355
v 0.254448 3.134024 -0.238108
v 0.316616 3.134024 -0.191355
v 0.254448 2.934025 -0.238108
v 0.316616 2.934025 -0.191355
v -0.308643 2.734025 -0.278865
v -0.370811 2.734025 -0.232112
v 0.308643 2.734025 -0.278865
v 0.370811 2.734025 -0.232112
v -0.308643 2.534025 -0.278865
v -0.370811 2.534025 -0.232112
v 0.308643 2.534025 -0.278865
v 0.370811 2.534025 -0.232112
v -0.248703 2.334025 -0.233787
v -0.310871 2.334025 -0.187034
v 0.248703 2.334025 -0.233787
v 0.310871 2.334025 -0.187034
v -0.289404 2.134025 -0.174119
v -0.231529 2.134025 -0.217643
v 0.289404 2.134025 -0.174119
v 0.231529 2.134025 -0.217643
v -0.316611 2.623975 0.286063
v -0.380383 2.623975 0.238104
v -0.380383 2.623975 -0.238104
v -0.316611 2.623975 -0.286063
v 0.316611 2.623975 -0.286063
v 0.380383 2.623975 -0.238104
v 0.380383 2.623975 0.238104
v 0.316611 2.623975 0.286063
v -0.231766 2.234025 0.217866
v 0.231766 2.234025 0.217866
v 0.289701 2.234025 0.174297
v 0.289701 2.234025 -0.174297
v 0.231766 2.234025 -0.217866
v -0.231766 2.234025 -0.217866
v -0.289701 2.234025 -0.174297
v -0.289701 2.234025 0.174297
v -0.278673 2.434025 0.256326
v 0.278673 2.434025 0.256326
v 0.340841 2.434025 0.209573
v 0.340841 2.434025 -0.209573
v 0.278673 2.434025 -0.256326
v -0.278673 2.434025 -0.256326
v -0.340841 2.434025 -0.209573
v -0.340841 2.434025 0.209573
v -0.281546 2.834025 0.258486
v 0.281546 2.834025 0.258486
v 0.343714 2.834025 0.211733
v 0.343714 2.834025 -0.211733
v 0.281546 2.834025 -0.258486
v -0.281546 2.834025 -0.258486
v -0.343714 2.834025 -0.211733
v -0.343714 2.834025 0.211733
v -0.236242 3.034025 0.221071
v -0.293962 3.034025 0.177664
v -0.293962 3.034025 -0.177664
v -0.236242 3.034025 -0.221071
v 0.236242 3.034025 -0.221071
v 0.293962 3.034025 -0.177664
v 0.293962 3.034025 0.177664
v 0.236242 3.034025 0.221071
vt 0.375000 0.274544
vt 0.399544 0.250000
vt 0.600456 0.250000
vt 0.625000 0.274544
vt 0.625000 0.475456
vt 0.600456 0.500000
vt 0.399544 0.500000
vt 0.375000 0.475456
vt 0.375000 0.774998
vt 0.399997 0.750000
vt 0.600003 0.750000
vt 0.625000 0.774998
vt 0.625000 0.975002
vt 0.600003 1.000000
vt 0.399997 1.000000
vt 0.375000 0.975002
vt 0.350003 0.025000
vt 0.399998 0.025000
vt 0.399998 0.050000
vt 0.350003 0.050000
vt 0.352023 0.075000
vt 0.397977 0.075000
vt 0.395957 0.100000
vt 0.354043 0.100000
vt 0.600003 0.025000
vt 0.649997 0.025000
vt 0.649997 0.050000
vt 0.600003 0.050000
vt 0.602023 0.075000
vt 0.647977 0.075000
vt 0.645957 0.100000
vt 0.604043 0.100000
vt 0.395957 0.122488
vt 0.354043 0.122488
vt 0.645957 0.122488
vt 0.604043 0.122488
vt 0.352250 0.175000
vt 0.397750 0.175000
vt 0.399544 0.200000
vt 0.350456 0.200000
vt 0.602250 0.175000
vt 0.647750 0.175000
vt 0.649544 0.200000
vt 0.600456 0.200000
vt 0.399544 0.225000
vt 0.350456 0.225000
vt 0.649544 0.225000
vt 0.600456 0.225000
vt 0.375000 0.512728
vt 0.399544 0.525000
vt 0.399544 0.550000
vt 0.375000 0.550000
vt 0.397750 0.575000
vt 0.375000 0.572566
vt 0.600456 0.525000
vt 0.625000 0.512728
vt 0.625000 0.550000
vt 0.600456 0.550000
vt 0.625000 0.572755
vt 0.602250 0.575000
vt 0.375000 0.627512
vt 0.395957 0.627512
vt 0.395957 0.650000
vt 0.375000 0.650000
vt 0.604043 0.627512
vt 0.625000 0.627512
vt 0.625000 0.650000
vt 0.604043 0.650000
vt 0.375000 0.654874
vt 0.397977 0.675000
vt 0.375000 0.677437
vt 0.625000 0.655335
vt 0.625000 0.677668
vt 0.602023 0.675000
vt 0.375000 0.700000
vt 0.399997 0.700000
vt 0.399997 0.725000
vt 0.375000 0.737499
vt 0.600003 0.700000
vt 0.625000 0.700000
vt 0.625000 0.737499
vt 0.600003 0.725000
vt 0.850003 0.025000
vt 0.850003 0.050000
vt 0.852023 0.075000
vt 0.854043 0.100000
vt 0.854043 0.122488
vt 0.852250 0.175000
vt 0.850456 0.200000
vt 0.850456 0.225000
vt 0.149998 0.050000
vt 0.149998 0.025000
vt 0.147977 0.075000
vt 0.145957 0.100000
vt 0.145957 0.122488
vt 0.147750 0.175000
vt 0.149544 0.200000
vt 0.149544 0.225000
vt 0.395957 0.150000
vt 0.354043 0.150000
vt 0.145957 0.150000
vt 0.375000 0.600000
vt 0.395957 0.600000
vt 0.604043 0.600000
vt 0.625000 0.600000
vt 0.854043 0.150000
vt 0.645957 0.150000
vt 0.604043 0.150000
vt 0.399998 0.000000
vt 0.600003 0.000000
vt 0.649997 0.000000
vt 0.850003 0.000000
vt 0.149998 0.000000
vt 0.350003 0.000000
vt 0.625000 0.595510
vt 0.375000 0.595131
vt 0.350456 0.250000
vt 0.149544 0.250000
vt 0.850456 0.250000
vt 0.649544 0.250000
vn 0.000000 1.000000 0.000000
vn 0.000000 1.000000 0.000000
vn 0.000000 1.000000 0.000000
vn 0.000000 1.000000 0.000000
vn 0.000000 1.000000 0.000000
vn 0.000000 1.000000 0.000000
vn 0.000000 1.000000 0.000000
vn 0.000000 1.000000 0.000000
vn 0.000000 -1.000000 0.000000
vn 0.000000 -1.000000 0.000000
vn 0.000000 -1.000000 0.000000
vn 0.000000 -1.000000 0.000000
vn 0.000000 -1.000000 0.000000
vn 0.000000 -1.000000 0.000000
vn 0.000000 -1.000000 0.000000
vn 0.000000 -1.000000 0.000000
vn -0.596664 -0.120483 0.793395
vn -0.596987 -0.115963 0.793826
vn -0.576811 -0.281080 0.766996
vn -0.575742 -0.287079 0.765576
vn -0.565465 -0.338943 0.751909
vn -0.565465 -0.338943 0.751909
vn -0.583247 -0.241537 0.775553
vn -0.584607 -0.232258 0.777362
vn 0.596987 -0.115963 0.793825
vn 0.596664 -0.120483 0.793395
vn 0.575742 -0.287079 0.765576
vn 0.576811 -0.281080 0.766996
vn 0.565465 -0.338943 0.751909
vn 0.565465 -0.338943 0.751909
vn 0.584607 -0.232258 0.777362
vn 0.583247 -0.241537 0.775553
vn -0.584607 -0.232258 0.777362
vn -0.583247 -0.241537 0.775553
vn -0.601043 -0.000135 0.799217
vn -0.601043 0.000278 0.799217
vn 0.583247 -0.241537 0.775553
vn 0.584607 -0.232258 0.777362
vn 0.601043 0.000278 0.799217
vn 0.601043 -0.000135 0.799217
vn -0.571488 0.309720 0.759918
vn -0.571488 0.309720 0.759918
vn -0.578073 0.273811 0.768674
vn -0.577452 0.277416 0.767848
vn 0.571488 0.309720 0.759918
vn 0.571488 0.309720 0.759918
vn 0.577452 0.277416 0.767848
vn 0.578073 0.273811 0.768674
vn -0.577452 0.277416 0.767848
vn -0.578073 0.273811 0.768674
vn -0.601043 0.000000 0.799217
vn -0.601043 0.000000 0.799217
vn 0.578073 0.273811 0.768674
vn 0.577452 0.277416 0.767848
vn 0.601043 0.000000 0.799217
vn 0.601043 0.000000 0.799217
vn -0.601043 0.000000 -0.799217
vn -0.601043 0.000000 -0.799217
vn -0.578073 0.273811 -0.768674
vn -0.577452 0.277416 -0.767848
vn -0.577452 0.277416 -0.767848
vn -0.578073 0.273811 -0.768674
vn -0.571488 0.309720 -0.759918
vn -0.571488 0.309720 -0.759918
vn 0.601043 0.000000 -0.799217
vn 0.601043 0.000000 -0.799217
vn 0.577452 0.277416 -0.767848
vn 0.578073 0.273811 -0.768674
vn 0.578073 0.273811 -0.768674
vn 0.577452 0.277416 -0.767848
vn 0.571488 0.309720 -0.759918
vn 0.571488 0.309720 -0.759918
vn -0.601043 0.000278 -0.799217
vn -0.601043 -0.000135 -0.799217
vn -0.583247 -0.241537 -0.775553
vn -0.584607 -0.232258 -0.777362
vn 0.601043 -0.000135 -0.799217
vn 0.601043 0.000278 -0.799217
vn 0.584607 -0.232258 -0.777362
vn 0.583247 -0.241537 -0.775553
vn -0.584607 -0.232258 -0.777362
vn -0.583247 -0.241537 -0.775553
vn -0.565465 -0.338943 -0.751909
vn -0.565465 -0.338943 -0.751909
vn 0.583247 -0.241537 -0.775553
vn 0.584607 -0.232258 -0.777362
vn 0.565465 -0.338943 -0.751909
vn 0.565465 -0.338943 -0.751909
vn -0.575742 -0.287079 -0.765576
vn -0.576811 -0.281080 -0.766996
vn -0.596987 -0.115963 -0.793826
vn -0.596664 -0.120483 -0.793395
vn 0.576811 -0.281080 -0.766996
vn 0.575742 -0.287079 -0.765576
vn 0.596664 -0.120483 -0.793395
vn 0.596987 -0.115963 -0.793825
vn 0.000000 -0.194577 0.980887
vn 0.000000 -0.085816 0.996311
vn 0.000000 -0.085816 0.996311
vn 0.000000 -0.194577 0.980887
vn 0.000000 -0.219873 0.975529
vn 0.000000 -0.219873 0.975529
vn 0.000000 -0.143566 0.989641
vn 0.000000 -0.143566 0.989641
vn 0.000000 -0.143566 0.989641
vn 0.000000 -0.143566 0.989641
vn 0.000000 0.000385 1.000000
vn 0.000000 0.000385 1.000000
vn 0.000000 0.199682 0.979861
vn 0.000000 0.199682 0.979861
vn 0.000000 0.186718 0.982414
vn 0.000000 0.186718 0.982414
vn 0.000000 0.186718 0.982414
vn 0.000000 0.186718 0.982414
vn 0.000000 0.000000 1.000000
vn 0.000000 0.000000 1.000000
vn 0.000000 0.186718 -0.982414
vn 0.000000 0.000000 -1.000000
vn 0.000000 0.000000 -1.000000
vn 0.000000 0.186718 -0.982414
vn 0.000000 0.186718 -0.982414
vn 0.000000 0.186718 -0.982414
vn 0.000000 0.199682 -0.979861
vn 0.000000 0.199682 -0.979861
vn 0.000000 0.000385 -1.000000
vn 0.000000 0.000385 -1.000000
vn 0.000000 -0.143566 -0.989641
vn 0.000000 -0.143566 -0.989641
vn 0.000000 -0.143566 -0.989641
vn 0.000000 -0.143566 -0.989641
vn 0.000000 -0.219873 -0.975528
vn 0.000000 -0.219873 -0.975528
vn 0.000000 -0.194577 -0.980887
vn 0.000000 -0.194577 -0.980887
vn 0.000000 -0.085816 -0.996311
vn 0.000000 -0.085816 -0.996311
vn 0.967278 -0.253720 0.000000
vn 0.993648 -0.112530 0.000000
vn 0.993648 -0.112530 0.000000
vn 0.967278 -0.253720 0.000000
vn 0.957905 -0.287087 0.000000
vn 0.957905 -0.287087 0.000000
vn 0.981302 -0.192476 0.000000
vn 0.981302 -0.192476 0.000000
vn 0.981302 -0.192476 0.000000
vn 0.981302 -0.192476 0.000000
vn 1.000000 0.000379 0.000000
vn 1.000000 0.000379 0.000000
vn 0.965191 0.261545 0.000000
vn 0.965191 0.261545 0.000000
vn 0.969687 0.244352 0.000000
vn 0.969687 0.244352 0.000000
vn 0.969687 0.244352 0.000000
vn 0.969687 0.244352 0.000000
vn 1.000000 0.000000 0.000000
vn 1.000000 0.000000 0.000000
vn -0.967278 -0.253720 0.000000
vn -0.993648 -0.112530 0.000000
vn -0.993648 -0.112530 0.000000
vn -0.967278 -0.253720 0.000000
vn -0.957905 -0.287087 0.000000
vn -0.957905 -0.287087 0.000000
vn -0.981302 -0.192476 0.000000
vn -0.981302 -0.192476 0.000000
vn -0.981302 -0.192476 0.000000
vn -0.981302 -0.192476 0.000000
vn -1.000000 0.000379 -0.000000
vn -1.000000 0.000379 -0.000000
vn -0.965191 0.261545 0.000000
vn -0.965191 0.261545 0.000000
vn -0.969687 0.244352 0.000000
vn -0.969687 0.244352 0.000000
vn -0.969687 0.244352 0.000000
vn -0.969687 0.244352 0.000000
vn -1.000000 0.000000 0.000000
vn -1.000000 0.000000 0.000000
vn -0.601043 0.000278 0.799217
vn -0.601043 -0.000135 0.799217
vn -0.588404 0.203997 0.782411
vn -0.589386 0.195993 0.783716
vn -1.000000 0.000379 -0.000000
vn -1.000000 0.000379 -0.000000
vn -0.986753 0.162233 -0.000000
vn -0.986753 0.162233 -0.000000
vn -0.589386 0.195993 -0.783716
vn -0.588404 0.203997 -0.782411
vn -0.601043 -0.000135 -0.799217
vn -0.601043 0.000278 -0.799217
vn 0.000000 0.120754 -0.992682
vn 0.000000 0.120754 -0.992682
vn 0.000000 0.000385 -1.000000
vn 0.000000 0.000385 -1.000000
vn 0.588404 0.203997 -0.782411
vn 0.589386 0.195993 -0.783716
vn 0.601043 0.000278 -0.799217
vn 0.601043 -0.000135 -0.799217
vn 1.000000 0.000379 0.000000
vn 1.000000 0.000379 0.000000
vn 0.986753 0.162233 0.000000
vn 0.986753 0.162233 0.000000
vn 0.601043 -0.000135 0.799217
vn 0.601043 0.000278 0.799217
vn 0.589386 0.195993 0.783716
vn 0.588404 0.203997 0.782411
vn 0.000000 0.000385 1.000000
vn 0.000000 0.000385 1.000000
vn 0.000000 0.120754 0.992683
vn 0.000000 0.120754 0.992683
vn 0.000000 -0.085816 0.996311
vn 0.000000 -0.085816 0.996311
vn 0.000000 -0.002229 0.999998
vn 0.000000 -0.002229 0.999998
vn 0.601040 -0.003207 0.799213
vn 0.601040 -0.003207 0.799213
vn 0.596664 -0.120483 0.793395
vn 0.596987 -0.115963 0.793825
vn 0.993648 -0.112530 0.000000
vn 0.993648 -0.112530 0.000000
vn 0.999996 -0.002964 0.000000
vn 0.999996 -0.002964 0.000000
vn 0.596987 -0.115963 -0.793825
vn 0.596664 -0.120483 -0.793395
vn 0.601040 -0.003207 -0.799213
vn 0.601040 -0.003207 -0.799213
vn 0.000000 -0.085816 -0.996311
vn 0.000000 -0.085816 -0.996311
vn 0.000000 -0.002229 -0.999998
vn 0.000000 -0.002229 -0.999998
vn -0.596664 -0.120483 -0.793395
vn -0.596987 -0.115963 -0.793826
vn -0.601039 -0.003207 -0.799213
vn -0.601039 -0.003207 -0.799213
vn -0.993648 -0.112530 0.000000
vn -0.993648 -0.112530 0.000000
vn -0.999996 -0.002964 0.000000
vn -0.999996 -0.002964 0.000000
vn -0.601039 -0.003207 0.799213
vn -0.601039 -0.003207 0.799213
vn -0.596987 -0.115963 0.793826
vn -0.596664 -0.120483 0.793395
vn 0.000000 -0.194577 0.980887
vn 0.000000 -0.194577 0.980887
vn 0.000000 -0.219873 0.975529
vn 0.000000 -0.219873 0.975529
vn 0.576811 -0.281080 0.766996
vn 0.575742 -0.287079 0.765576
vn 0.565465 -0.338943 0.751909
vn 0.565465 -0.338943 0.751909
vn 0.967278 -0.253720 0.000000
vn 0.967278 -0.253720 0.000000
vn 0.957905 -0.287087 0.000000
vn 0.957905 -0.287087 0.000000
vn 0.565465 -0.338943 -0.751909
vn 0.565465 -0.338943 -0.751909
vn 0.575742 -0.287079 -0.765576
vn 0.576811 -0.281080 -0.766996
vn 0.000000 -0.219873 -0.975528
vn 0.000000 -0.219873 -0.975528
vn 0.000000 -0.194577 -0.980887
vn 0.000000 -0.194577 -0.980887
vn -0.565465 -0.338943 -0.751909
vn -0.565465 -0.338943 -0.751909
vn -0.576811 -0.281080 -0.766996
vn -0.575742 -0.287079 -0.765576
vn -0.967278 -0.253720 0.000000
vn -0.967278 -0.253720 0.000000
vn -0.957905 -0.287087 0.000000
vn -0.957905 -0.287087 0.000000
vn -0.575742 -0.287079 0.765576
vn -0.576811 -0.281080 0.766996
vn -0.565465 -0.338943 0.751909
vn -0.565465 -0.338943 0.751909
vn 0.000000 0.120754 0.992683
vn 0.000000 0.120754 0.992683
vn 0.000000 0.199682 0.979861
vn 0.000000 0.199682 0.979861
vn 0.588404 0.203997 0.782411
vn 0.589386 0.195993 0.783716
vn 0.571488 0.309720 0.759918
vn 0.571488 0.309720 0.759918
vn 0.986753 0.162233 0.000000
vn 0.986753 0.162233 0.000000
vn 0.965191 0.261545 0.000000
vn 0.965191 0.261545 0.000000
vn 0.571488 0.309720 -0.759918
vn 0.571488 0.309720 -0.759918
vn 0.589386 0.195993 -0.783716
vn 0.588404 0.203997 -0.782411
vn 0.000000 0.199682 -0.979861
vn 0.000000 0.199682 -0.979861
vn 0.000000 0.120754 -0.992682
vn 0.000000 0.120754 -0.992682
vn -0.571488 0.309720 -0.759918
vn -0.571488 0.309720 -0.759918
vn -0.588404 0.203997 -0.782411
vn -0.589386 0.195993 -0.783716
vn -0.986753 0.162233 -0.000000
vn -0.986753 0.162233 -0.000000
vn -0.965191 0.261545 0.000000
vn -0.965191 0.261545 0.000000
vn -0.589386 0.195993 0.783716
vn -0.588404 0.203997 0.782411
vn -0.571488 0.309720 0.759918
vn -0.571488 0.309720 0.759918
vn -0.601043 0.000000 0.799217
vn -0.601043 0.000000 0.799217
vn -0.583699 -0.238495 0.776155
vn -0.583699 -0.238495 0.776155
vn -1.000000 0.000000 0.000000
vn -1.000000 0.000000 0.000000
vn -0.975288 -0.220939 0.000000
vn -0.975288 -0.220939 0.000000
vn -0.583699 -0.238495 -0.776155
vn -0.583699 -0.238495 -0.776155
vn -0.601043 0.000000 -0.799217
vn -0.601043 0.000000 -0.799217
vn 0.000000 0.000000 -1.000000
vn 0.000000 0.000000 -1.000000
vn 0.000000 -0.167945 -0.985796
vn 0.000000 -0.167945 -0.985796
vn 0.583699 -0.238495 -0.776155
vn 0.583699 -0.238495 -0.776155
vn 0.601043 0.000000 -0.799217
vn 0.601043 0.000000 -0.799217
vn 1.000000 0.000000 0.000000
vn 1.000000 0.000000 0.000000
vn 0.975288 -0.220939 0.000000
vn 0.975288 -0.220939 0.000000
vn 0.601043 0.000000 0.799217
vn 0.601043 0.000000 0.799217
vn 0.583699 -0.238495 0.776155
vn 0.583699 -0.238495 0.776155
vn 0.000000 0.000000 1.000000
vn 0.000000 0.000000 1.000000
vn 0.000000 -0.167945 0.985796
vn 0.000000 -0.167945 0.985796
s off
g wavy_body
usemtl deca_body_initialShadingGroup
f 21/1/1 22/2/2 24/3/3 23/4/4 30/5/5 29/6/6 26/7/7 25/8/8
f 45/9/9 46/10/10 48/11/11 47/12/12 5/13/13 6/14/14 2/15/15 1/16/16
f 64/17/17 57/18/18 3/19/19 4/20/20
f 72/21/21 65/22/22 9/23/23 10/24/24
f 58/25/25 59/26/26 8/27/27 7/28/28
f 66/29/29 67/30/30 12/31/31 11/32/32
f 10/24/33 9/23/34 49/33/35 50/34/36
f 11/32/37 12/31/38 55/35/39 56/36/40
f 80/37/41 73/38/42 17/39/43 18/40/44
f 74/41/45 75/42/46 20/43/47 19/44/48
f 18/40/49 17/39/50 81/45/51 82/46/52
f 19/44/53 20/43/54 87/47/55 88/48/56
f 83/49/57 84/50/58 27/51/59 28/52/60
f 28/52/61 27/51/62 78/53/63 79/54/64
f 85/55/65 86/56/66 32/57/67 31/58/68
f 31/58/69 32/57/70 76/59/71 77/60/72
f 51/61/73 52/62/74 37/63/75 38/64/76
f 53/65/77 54/66/78 40/67/79 39/68/80
f 38/69/81 37/63/82 70/70/83 71/71/84
f 39/68/85 40/72/86 68/73/87 69/74/88
f 42/75/89 41/76/90 62/77/91 63/78/92
f 43/79/93 44/80/94 60/81/95 61/82/96
f 3/19/97 57/18/98 58/25/99 7/28/100
f 65/22/101 66/29/102 11/32/103 9/23/104
f 9/23/105 11/32/106 56/36/107 49/33/108
f 73/38/109 74/41/110 19/44/111 17/39/112
f 17/39/113 19/44/114 88/48/115 81/45/116
f 27/51/117 84/50/118 85/55/119 31/58/120
f 27/51/121 31/58/122 77/60/123 78/53/124
f 52/62/125 53/65/126 39/68/127 37/63/128
f 37/63/129 39/68/130 69/74/131 70/70/132
f 41/76/133 43/79/134 61/82/135 62/77/136
f 8/27/137 59/26/138 60/83/139 44/84/140
f 67/30/141 68/85/142 40/86/143 12/31/144
f 12/31/145 40/86/146 54/87/147 55/35/148
f 75/42/149 76/88/150 32/89/151 20/43/152
f 20/43/153 32/89/154 86/90/155 87/47/156
f 42/91/157 63/92/158 64/17/159 4/20/160
f 71/93/161 72/21/162 10/24/163 38/94/164
f 38/94/165 10/24/166 50/34/167 51/95/168
f 79/96/169 80/37/170 18/40/171 28/97/172
f 28/97/173 18/40/174 82/46/175 83/98/176
f 50/34/177 49/33/178 13/99/179 14/100/180
f 51/95/181 50/34/182 14/100/183 34/101/184
f 34/102/185 33/103/186 52/62/187 51/61/188
f 33/103/189 35/104/190 53/65/191 52/62/192
f 35/104/193 36/105/194 54/66/195 53/65/196
f 55/35/197 54/87/198 36/106/199 16/107/200
f 56/36/201 55/35/202 16/107/203 15/108/204
f 49/33/205 56/36/206 15/108/207 13/99/208
f 58/25/209 57/18/210 2/109/211 6/110/212
f 6/110/213 5/111/214 59/26/215 58/25/216
f 60/83/217 59/26/218 5/111/219 47/112/220
f 61/82/221 60/81/222 47/12/223 48/11/224
f 62/77/225 61/82/226 48/11/227 46/10/228
f 63/78/229 62/77/230 46/10/231 45/9/232
f 64/17/233 63/92/234 45/113/235 1/114/236
f 1/114/237 2/109/238 57/18/239 64/17/240
f 3/19/241 7/28/242 66/29/243 65/22/244
f 7/28/245 8/27/246 67/30/247 66/29/248
f 8/27/249 44/84/250 68/85/251 67/30/252
f 69/74/253 68/73/254 44/80/255 43/79/256
f 70/70/257 69/74/258 43/79/259 41/76/260
f 71/71/261 70/70/262 41/76/263 42/75/264
f 42/91/265 4/20/266 72/21/267 71/93/268
f 4/20/269 3/19/270 65/22/271 72/21/272
f 13/99/273 15/108/274 74/41/275 73/38/276
f 15/108/277 16/107/278 75/42/279 74/41/280
f 16/107/281 36/106/282 76/88/283 75/42/284
f 77/60/285 76/59/286 36/115/287 35/104/288
f 78/53/289 77/60/290 35/104/291 33/103/292
f 79/54/293 78/53/294 33/103/295 34/116/296
f 34/101/297 14/100/298 80/37/299 79/96/300
f 14/100/301 13/99/302 73/38/303 80/37/304
f 82/46/305 81/45/306 22/2/307 21/117/308
f 83/98/309 82/46/310 21/117/311 25/118/312
f 25/8/313 26/7/314 84/50/315 83/49/316
f 85/55/317 84/50/318 26/7/319 29/6/320
f 29/6/321 30/5/322 86/56/323 85/55/324
f 87/47/325 86/90/326 30/119/327 23/120/328
f 88/48/329 87/47/330 23/120/331 24/3/332
f 81/45/333 88/48/334 24/3/335 22/2/336
